<?xml version="1.0" encoding="UTF-8"?>
<svg id="Lag_2" data-name="Lag 2" xmlns="http://www.w3.org/2000/svg" viewBox="0 0 234 73">
  <defs>
    <style>
      .cls-1 {
        fill: #fff;
      }

      .cls-2 {
        fill: #d2edfe;
      }
    </style>
  </defs>
  <g id="Lag_1-2" data-name="Lag 1">
    <g>
      <polygon class="cls-1" points="168.12 0 140.01 0 177.22 36.33 139.66 73 167.77 73 205.34 36.33 168.12 0"/>
      <path class="cls-1" d="m1.8,1.41C.7,2.49,0,4.11,0,5.92v61.15c0,1.72.63,3.26,1.64,4.34l35.94-35.09L1.8,1.41Z"/>
      <polygon class="cls-1" points="112.2 0 84.09 0 121.3 36.33 83.74 73 111.85 73 149.42 36.33 112.2 0"/>
      <polygon class="cls-1" points="234 9.72 224.04 0 195.93 0 233.14 36.33 195.57 73 223.69 73 234 62.93 234 9.72"/>
      <polygon class="cls-1" points="56.28 0 28.17 0 65.38 36.33 27.82 73 55.93 73 93.5 36.33 56.28 0"/>
      <path class="cls-2" d="m28.17,0H5.1c-1.26,0-2.4.53-3.29,1.41l35.77,34.92L1.64,71.42c.91.98,2.12,1.58,3.46,1.58h22.72l37.57-36.67L28.17,0Z"/>
      <polygon class="cls-2" points="84.09 0 56.28 0 93.5 36.33 55.93 73 83.74 73 121.3 36.33 84.09 0"/>
      <polygon class="cls-2" points="140.01 0 112.2 0 149.42 36.33 111.85 73 139.66 73 177.22 36.33 140.01 0"/>
      <polygon class="cls-2" points="195.93 0 168.12 0 205.34 36.33 167.77 73 195.57 73 233.14 36.33 195.93 0"/>
      <path class="cls-2" d="m234,5.92c0-3.27-2.28-5.92-5.1-5.92h-4.86l9.96,9.72v-3.8Z"/>
      <path class="cls-2" d="m234,67.08v-4.14l-10.31,10.07h5.21c2.81,0,5.1-2.65,5.1-5.92Z"/>
    </g>
  </g>
</svg>