<svg xmlns="http://www.w3.org/2000/svg" width="15" height="20" viewBox="0 0 15 20">
  <g id="Group_274" data-name="Group 274" transform="translate(0 -0.125)">
    <path id="Rectangle_217" data-name="Rectangle 217" d="M1.3,1.3V18.7H13.7V1.3H1.3M0,0H15V20H0Z" transform="translate(0 0.125)" fill="#9698de"/>
    <path id="Line_7" data-name="Line 7" d="M7,.65H0V-.65H7Z" transform="translate(5.5 4.625)" fill="#9698de"/>
    <path id="Line_8" data-name="Line 8" d="M7,.65H0V-.65H7Z" transform="translate(5.5 8.125)" fill="#9698de"/>
    <path id="Line_9" data-name="Line 9" d="M7,.65H0V-.65H7Z" transform="translate(5.5 11.625)" fill="#9698de"/>
    <path id="Line_13" data-name="Line 13" d="M7,.65H0V-.65H7Z" transform="translate(5.5 15.125)" fill="#9698de"/>
    <path id="Line_10" data-name="Line 10" d="M1.5.65H0V-.65H1.5Z" transform="translate(2.5 11.625)" fill="#9698de"/>
    <path id="Line_14" data-name="Line 14" d="M1.5.65H0V-.65H1.5Z" transform="translate(2.5 15.125)" fill="#9698de"/>
    <path id="Line_11" data-name="Line 11" d="M1.5.65H0V-.65H1.5Z" transform="translate(2.5 8.125)" fill="#9698de"/>
    <path id="Line_12" data-name="Line 12" d="M1.5.65H0V-.65H1.5Z" transform="translate(2.5 4.625)" fill="#9698de"/>
  </g>
</svg>
