<svg id="Cancel" xmlns="http://www.w3.org/2000/svg" width="50" height="50" viewBox="0 0 50 50">
  <g id="Ellipse_43" data-name="Ellipse 43" fill="#d0d1ee" stroke="#d0d1ee" stroke-width="1">
    <circle cx="25" cy="25" r="25" stroke="none"/>
    <circle cx="25" cy="25" r="24.5" fill="none"/>
  </g>
  <g id="Cancel-2" data-name="Cancel" transform="translate(15 15)">
    <path id="Path_95" data-name="Path 95" d="M10,0A10,10,0,1,0,20,10,10,10,0,0,0,10,0Zm8.4,10a8.344,8.344,0,0,1-1.629,4.963L4.277,3.859A8.394,8.394,0,0,1,18.4,10ZM1.6,10A8.337,8.337,0,0,1,3.216,5.056l12.491,11.1A8.395,8.395,0,0,1,1.6,10Z" fill="#fff"/>
  </g>
</svg>
