<svg id="Excel_3" data-name="Excel 3" xmlns="http://www.w3.org/2000/svg" width="27.15" height="20" viewBox="0 0 27.15 20">
  <path id="Subtraction_5" data-name="Subtraction 5" d="M1262.5,118h-18v-2.151l1.3-1.731V116.7h15.4V99.3h-15.4v2.3l-1.3-1.731V98h18v20Z" transform="translate(-1235.35 -98)" fill="#9698de"/>
  <text id="X" transform="translate(12.85 1)" fill="#9698de" font-size="14" font-family="CenturyGothicPro, Century Gothic Pro"><tspan x="0.737" y="14">X</tspan></text>
  <path id="Arrow" d="M1252.26,107.17a.649.649,0,0,1-.13-.91l2.22-2.96h-9.7a.65.65,0,0,1,0-1.3h9.7l-2.22-2.96a.65.65,0,1,1,1.04-.779l2.988,3.984.019.025h0l.009.013h0l.009.013h0a.65.65,0,0,1-.039.762l-2.986,3.982a.65.65,0,0,1-.91.131Z" transform="translate(-1244 -93)" fill="#9698de"/>
</svg>
