<svg xmlns="http://www.w3.org/2000/svg" width="27.15" height="20" viewBox="0 0 27.15 20">
  <g id="Excel1" transform="translate(-1172.85 -402)">
    <path id="Path_418" data-name="Path 418" d="M1262.5,118h-18v-2.151l1.3-1.731V116.7h15.4V99.3h-15.4v2.3l-1.3-1.731V98h18v20Z" transform="translate(-62.5 304)" fill="#9698de"/>
    <path id="Path_419" data-name="Path 419" d="M4.419,8.82,1.213,14H2.389L5.021,9.786,7.625,14H8.8L5.609,8.82l3-4.872H7.443L5.021,7.868,2.613,3.948H1.437Z" transform="translate(1185.7 403)" fill="#9698de"/>
    <path id="Arrow" d="M1252.26,107.17a.649.649,0,0,1-.13-.91l2.22-2.96h-9.7a.65.65,0,0,1,0-1.3h9.7l-2.22-2.96a.65.65,0,1,1,1.04-.779l2.988,3.984.019.025h0l.009.013h0l.009.013h0a.65.65,0,0,1-.039.762l-2.986,3.982a.65.65,0,0,1-.91.131Z" transform="translate(-71.15 309)" fill="#9698de"/>
  </g>
</svg>
