<svg id="Group_31" data-name="Group 31" xmlns="http://www.w3.org/2000/svg" width="18.735" height="18.735" viewBox="0 0 18.735 18.735">
  <g id="Group_30" data-name="Group 30" transform="translate(6.307 3.347)">
    <path id="Path_79" data-name="Path 79" d="M6.861,11.448l-.037-.462A3.771,3.771,0,0,1,8.073,7.913c.912-.937,1.411-1.636,1.411-2.436,0-.9-.649-1.511-1.911-1.524a3.923,3.923,0,0,0-2.036.55L5.05,3.392A5.824,5.824,0,0,1,7.935,2.68c2.323,0,3.36,1.261,3.36,2.61,0,1.212-.762,2.073-1.736,3.085a3.271,3.271,0,0,0-1.149,2.61l.025.462H6.861Z" transform="translate(-5.05 -2.68)" fill="#9698de"/>
    <path id="Path_80" data-name="Path 80" d="M6.3,11.912a1.057,1.057,0,1,1,2.111,0,1.056,1.056,0,1,1-2.111,0Z" transform="translate(-4.739 -0.658)" fill="#9698de"/>
  </g>
  <path id="Path_81" data-name="Path 81" d="M9.367,1.249A8.118,8.118,0,1,1,1.249,9.367,8.134,8.134,0,0,1,9.367,1.249M9.367,0a9.367,9.367,0,1,0,9.367,9.367A9.371,9.371,0,0,0,9.367,0Z" fill="#9698de"/>
</svg>
