<?xml version="1.0" encoding="UTF-8"?>
<svg id="Lag_2" data-name="Lag 2" xmlns="http://www.w3.org/2000/svg" viewBox="0 0 116 116">
  <defs>
    <style>
      .cls-1 {
        fill: #9698de;
      }

      .cls-2 {
        fill: #03045e;
      }
    </style>
  </defs>
  <g id="Lag_1-2" data-name="Lag 1">
    <rect class="cls-1" width="116" height="116" rx="14.95" ry="14.95"/>
    <g>
      <path class="cls-2" d="m72.05,21.12h-28.11c-6.89,0-12.5,5.61-12.5,12.5v35.59c0,6.85,5.54,12.42,12.37,12.49l-6.25,10.65,4.31,2.53,7.72-13.18h16.78l7.72,13.18,4.31-2.53-6.25-10.65c6.83-.07,12.37-5.65,12.37-12.49v-35.59c0-6.89-5.61-12.5-12.5-12.5Zm7.5,48.09c0,4.14-3.36,7.5-7.5,7.5h-28.11c-4.14,0-7.5-3.36-7.5-7.5v-35.59c0-4.14,3.36-7.5,7.5-7.5h28.11c4.14,0,7.5,3.36,7.5,7.5v35.59Z"/>
      <path class="cls-2" d="m69.38,35.53h-22.76c-2.48,0-4.5,2.02-4.5,4.5v9.38c0,2.48,2.02,4.5,4.5,4.5h22.76c2.48,0,4.5-2.02,4.5-4.5v-9.38c0-2.48-2.02-4.5-4.5-4.5Zm-.5,13.38h-21.76v-8.38h21.76v8.38Z"/>
      <circle class="cls-2" cx="67.13" cy="65.31" r="4.12"/>
      <path class="cls-2" d="m48.6,61.19c-2.27,0-4.12,1.84-4.12,4.12s1.84,4.12,4.12,4.12,4.12-1.84,4.12-4.12-1.84-4.12-4.12-4.12Z"/>
    </g>
  </g>
</svg>