<?xml version="1.0" encoding="UTF-8"?>
<svg id="Lag_2" data-name="Lag 2" xmlns="http://www.w3.org/2000/svg" viewBox="0 0 234 73">
  <defs>
    <style>
      .cls-1 {
        fill: #fff;
      }

      .cls-2 {
        fill: #ccc;
      }
    </style>
  </defs>
  <g id="Lag_1-2" data-name="Lag 1">
    <g>
      <g>
        <path class="cls-2" d="m12.5,0h-7.41C2.28,0,0,2.65,0,5.92v10.99l57.43,56.05-.03.04h29.83L12.47.04l.03-.04Z"/>
        <path class="cls-2" d="m0,67.08c0,3.27,2.28,5.92,5.1,5.92h24.28L0,44.33v22.74Z"/>
        <polygon class="cls-2" points="128.21 0 98.38 0 173.14 72.96 173.11 73 202.94 73 128.18 .04 128.21 0"/>
        <polygon class="cls-2" points="70.36 0 40.53 0 115.28 72.96 115.25 73 145.08 73 70.33 .04 70.36 0"/>
        <path class="cls-2" d="m186.07,0h-29.83l74.42,72.63c1.95-.83,3.34-3,3.34-5.56v-20.22L186.04.04l.03-.04Z"/>
        <path class="cls-2" d="m234,5.92c0-3.27-2.28-5.92-5.1-5.92h-14.81l19.91,19.43V5.92Z"/>
      </g>
      <polygon class="cls-1" points="0 16.91 0 44.33 29.37 73 57.4 73 57.43 72.96 0 16.91"/>
      <polygon class="cls-1" points="40.53 0 12.5 0 12.47 .04 87.23 73 115.25 73 115.28 72.96 40.53 0"/>
      <polygon class="cls-1" points="98.38 0 70.36 0 70.33 .04 145.08 73 173.11 73 173.14 72.96 98.38 0"/>
      <path class="cls-1" d="m128.21,0l-.03.04,74.76,72.96h25.97c.62,0,1.21-.13,1.75-.37L156.24,0h-28.02Z"/>
      <polygon class="cls-1" points="214.09 0 186.07 0 186.04 .04 234 46.85 234 19.43 214.09 0"/>
    </g>
  </g>
</svg>