<svg id="Group_43" data-name="Group 43" xmlns="http://www.w3.org/2000/svg" width="23.734" height="20" viewBox="0 0 23.734 20">
  <path id="Path_92" data-name="Path 92" d="M23.734,20H0V8.107H6.379V2.8L11.873,0l5.482,2.8V8.107h6.379ZM1.389,18.493H22.345V9.613H15.966V3.76L11.873,1.667,7.78,3.76V9.613H1.389Z" fill="#9698de"/>
  <path id="Path_93" data-name="Path 93" d="M14.066,16.545H6.63V11.2A3.21,3.21,0,0,1,9.838,7.99h1.008A3.21,3.21,0,0,1,14.054,11.2v5.347Zm-6.06-1.377h4.7V11.2a1.841,1.841,0,0,0-1.844-1.844H9.85A1.841,1.841,0,0,0,8.007,11.2Z" transform="translate(1.519 3.394)" fill="#9698de"/>
  <path id="Path_94" data-name="Path 94" d="M10.176,7.8a2.766,2.766,0,1,1,2.766-2.766A2.77,2.77,0,0,1,10.176,7.8Zm0-4.154a1.377,1.377,0,1,0,1.377,1.377A1.374,1.374,0,0,0,10.176,3.647Z" transform="translate(1.698 0.858)" fill="#9698de"/>
</svg>
