<svg xmlns="http://www.w3.org/2000/svg" width="13.397" height="18.62" viewBox="0 0 13.397 18.62">
  <path id="Union_7" data-name="Union 7" d="M-2804.458-6377.261l1.582-2.7a3.157,3.157,0,0,1-3.124-3.15v-8.98a3.156,3.156,0,0,1,3.152-3.151h7.094a3.155,3.155,0,0,1,3.15,3.151v8.98a3.155,3.155,0,0,1-3.116,3.15l1.58,2.695-1.093.639-1.954-3.333h-4.224l-1.956,3.338Zm1.61-16.715a1.9,1.9,0,0,0-1.9,1.9v8.98a1.9,1.9,0,0,0,1.9,1.9h7.094a1.9,1.9,0,0,0,1.9-1.9v-8.993a1.9,1.9,0,0,0-1.9-1.9h-7.094Zm4.812,9.887a1.042,1.042,0,0,1,1.042-1.042,1.042,1.042,0,0,1,1.043,1.042,1.043,1.043,0,0,1-1.043,1.042A1.043,1.043,0,0,1-2798.037-6384.088Zm-4.675,0a1.041,1.041,0,0,1,1.042-1.042,1.042,1.042,0,0,1,1.042,1.042,1.043,1.043,0,0,1-1.042,1.042A1.042,1.042,0,0,1-2802.712-6384.088Zm.533-2.878a1.146,1.146,0,0,1-1.141-1.141v-2.369a1.146,1.146,0,0,1,1.141-1.141h5.743a1.146,1.146,0,0,1,1.141,1.141v2.369a1.147,1.147,0,0,1-1.141,1.141Zm5.619-1.267v-2.107h-5.483v2.107Zm-5.483,0h-.013Z" transform="translate(2806.001 6395.24)" fill="#9698de"/>
</svg>
