<?xml version="1.0" encoding="UTF-8"?>
<svg id="Lag_2" data-name="Lag 2" xmlns="http://www.w3.org/2000/svg" viewBox="0 0 234 73">
  <defs>
    <style>
      .cls-1 {
        fill: #333;
      }

      .cls-2 {
        fill: #ccc;
      }
    </style>
  </defs>
  <g id="Lag_1-2" data-name="Lag 1">
    <path class="cls-1" d="m0,60c0,3.31,2.31,6,5.16,6h3.5c.42,3.95,3.31,7,6.82,7s6.4-3.05,6.82-7h7.86c.42,3.95,3.31,7,6.82,7s6.4-3.05,6.82-7h8.72c.42,3.95,3.31,7,6.82,7s6.4-3.05,6.82-7h100.77c.42,3.95,3.31,7,6.82,7s6.4-3.05,6.82-7h7.86c.42,3.95,3.31,7,6.82,7s6.4-3.05,6.82-7h9.58c.42,3.95,3.31,7,6.82,7s6.4-3.05,6.82-7h3.5c2.85,0,5.16-2.69,5.16-6H0Z"/>
    <path class="cls-2" d="m234,60H0v-15.38c0-6.15,2.73-11.86,7.21-15.11L42.81,3.68c3.31-2.4,7.14-3.68,11.05-3.68h174.48c3.13,0,5.67,2.95,5.67,6.59v53.41Z"/>
  </g>
</svg>