<svg id="Group_38" data-name="Group 38" xmlns="http://www.w3.org/2000/svg" width="20.274" height="20" viewBox="0 0 20.274 20">
  <path id="Path_85" data-name="Path 85" d="M8.651,12.692A4.151,4.151,0,1,1,12.8,8.541,4.155,4.155,0,0,1,8.651,12.692Zm0-7.1a2.95,2.95,0,1,0,2.95,2.95,2.951,2.951,0,0,0-2.95-2.95Z" transform="translate(1.493 1.459)" fill="#9698de"/>
  <path id="Path_86" data-name="Path 86" d="M11.956,20l-.107-.627a1.723,1.723,0,0,0-3.39,0L8.352,20l-.614-.147A10.133,10.133,0,0,1,2.893,17.08l-.48-.493.561-.4a1.72,1.72,0,0,0-1-3.12,1.777,1.777,0,0,0-.734.16l-.627.293-.2-.667a10.272,10.272,0,0,1,0-5.68l.2-.667.627.293A1.729,1.729,0,0,0,3.694,5.24a1.706,1.706,0,0,0-.721-1.4l-.561-.4.48-.493A9.869,9.869,0,0,1,7.725.147L8.338,0l.107.627a1.717,1.717,0,0,0,1.7,1.413,1.73,1.73,0,0,0,1.7-1.413L11.942,0l.614.147A10.133,10.133,0,0,1,17.4,2.92l.48.493-.561.4a1.72,1.72,0,0,0,1,3.12,1.777,1.777,0,0,0,.734-.16l.627-.293.2.667a10.272,10.272,0,0,1,0,5.68l-.2.667-.627-.293A1.729,1.729,0,0,0,16.6,14.76a1.706,1.706,0,0,0,.721,1.4l.561.4-.48.493a10.2,10.2,0,0,1-4.845,2.773l-.614.147ZM10.14,16.773a2.926,2.926,0,0,1,2.683,1.773,9.031,9.031,0,0,0,3.3-1.88,2.9,2.9,0,0,1,2.2-4.8,2.662,2.662,0,0,1,.561.053A9.2,9.2,0,0,0,19.1,10a8.384,8.384,0,0,0-.214-1.92,2.662,2.662,0,0,1-.561.053,2.915,2.915,0,0,1-2.91-2.907,2.868,2.868,0,0,1,.707-1.893,9.141,9.141,0,0,0-3.3-1.88,2.916,2.916,0,0,1-5.365,0,9.031,9.031,0,0,0-3.3,1.88,2.894,2.894,0,0,1,.707,1.893,2.915,2.915,0,0,1-2.91,2.907A2.662,2.662,0,0,1,1.4,8.08,9.2,9.2,0,0,0,1.185,10,8.384,8.384,0,0,0,1.4,11.92a2.662,2.662,0,0,1,.561-.053,2.915,2.915,0,0,1,2.91,2.907,2.868,2.868,0,0,1-.707,1.893,9.141,9.141,0,0,0,3.3,1.88,2.926,2.926,0,0,1,2.683-1.773Z" transform="translate(-0.01)" fill="#9698de"/>
</svg>
